<svg width="328.25000000000006" height="81.79350831078703" viewBox="0 0 305 76.00006103515625" class="looka-1j8o68f"><defs id="SvgjsDefs1897"></defs><g id="SvgjsG1898" featurekey="nRdZyp-0" transform="matrix(1,0,0,1,-9.999993324279785,-11.9998779296875)" fill="#32a097"><g xmlns="http://www.w3.org/2000/svg" transform="translate(0,-952.36218)"><path d="m 60.7828,964.36215 27.1809,0.8834 -27.1809,25.9958 z m -1.9745,1.4513 0,26.7845 -25.2681,0 c 8.6166,-8.7334 16.8796,-17.8103 25.2681,-26.7845 z m 27.7053,3.628 3.4864,1.1989 -12.5877,7.4768 z m -68.1835,2.9656 5.5226,0 12.8654,14.0705 -5.9854,6.1204 -12.4026,0 c 9e-4,-6.7347 0,-13.4597 0,-20.1909 z m -1.9746,1.2304 0,5.8364 -6.3555,0 z m 3.363,20.9796 38.627,0 -10.7675,29.43465 z m 39.0898,4.54286 0,41.20229 -12.5878,-6.8775 c 4.1972,-11.443 8.3886,-22.879 12.5878,-34.32479 z" style="text-indent:0;text-transform:none;direction:ltr;block-progression:tb;baseline-shift:baseline;color:;enable-background:accumulate;" fill="#32a097" fill-opacity="1" stroke="none" marker="none" visibility="visible" display="inline" overflow="visible"></path></g></g><g id="SvgjsG1899" featurekey="Q4qmbg-0" transform="matrix(4.364608582716803,0,0,4.364608582716803,99.93705679124248,-27.471501650355968)" fill="#32a097"><path d="M16.98 20 l-2.98 0 l0 -5.64 c0 -1.52 -0.42 -2.16 -1.54 -2.16 c-1.2 0 -1.9 0.64 -1.9 2.16 l0 5.64 l-2.98 0 l0 -5.64 c0 -1.52 -0.4 -2.16 -1.54 -2.16 c-1.2 0 -1.92 0.64 -1.92 2.16 l0 5.64 l-2.96 0 l0 -9.88 l2.96 0 l0 0.9 c0.7 -0.7 1.76 -1.04 2.7 -1.04 c1.4 0 2.3 0.52 2.94 1.34 c0.54 -0.66 1.7 -1.26 3.44 -1.34 c2.78 0 3.78 1.32 3.78 4.38 l0 5.64 z M21.067708333333336 13.04 l-2.2 -1.26 c1.1 -1.24 2.58 -1.82 4.12 -1.82 c2.96 0 4.16 1.62 4.16 3.14 l0 6.9 l-2.96 0 l0 -0.7 c-0.46 0.48 -1.28 0.84 -2.2 0.84 c-2.7 0 -3.74 -1.2 -3.74 -3.04 c0 -2.08 1.68 -3.48 4.4 -3.48 l1.54 0 c0 -0.74 -0.56 -1.22 -1.4 -1.22 c-0.86 0 -1.28 0.16 -1.72 0.64 z M24.187708333333333 16.740000000000002 l0 -0.88 l-1.74 0 c-0.78 0 -1.36 0.54 -1.24 1.3 c0.08 0.54 0.56 0.76 1.24 0.76 c1.3 0 1.74 -0.74 1.74 -1.18 z M33.85541666666666 20 l-1.94 0 l-4.18 -9.88 l3.06 0 l2.08 5.64 c0.68 -1.72 1.44 -3.98 2.08 -5.64 l3.04 0 z M40.903124999999996 13.04 l-2.2 -1.26 c1.1 -1.24 2.58 -1.82 4.12 -1.82 c2.96 0 4.16 1.62 4.16 3.14 l0 6.9 l-2.96 0 l0 -0.7 c-0.46 0.48 -1.28 0.84 -2.2 0.84 c-2.7 0 -3.74 -1.2 -3.74 -3.04 c0 -2.08 1.68 -3.48 4.4 -3.48 l1.54 0 c0 -0.74 -0.56 -1.22 -1.4 -1.22 c-0.86 0 -1.28 0.16 -1.72 0.64 z M44.023125 16.740000000000002 l0 -0.88 l-1.74 0 c-0.78 0 -1.36 0.54 -1.24 1.3 c0.08 0.54 0.56 0.76 1.24 0.76 c1.3 0 1.74 -0.74 1.74 -1.18 z"></path></g></svg>